<svg width="72" height="66" viewBox="0 0 72 66" fill="none" xmlns="http://www.w3.org/2000/svg">
<path d="M41.7216 2.65532C45.5821 0.440079 54.7749 -1.63702 60.9481 1.9063C68.6646 6.33566 73.2913 17.1053 69.9345 26.3946C67.2489 33.8259 59.882 39.6786 55.6757 41.1075C57.9174 41.886 60.6558 42.5791 62.4931 45.9366C65.1713 50.8309 64.3617 56.4554 59.5604 61.9073C55.5973 66.4073 49.169 66.0526 44.91 65.2706C40.7939 64.5146 35.9971 60.4667 35.538 58.2657V58.2969C35.3804 60.4354 30.3926 64.7423 26.1337 65.5245C21.8748 66.3065 15.4465 66.6612 11.4833 62.1612C6.68185 56.7092 5.87242 51.0849 8.55067 46.1905C10.3879 42.833 13.1263 42.1399 15.3681 41.3614C11.1618 39.9326 3.79488 34.0797 1.10926 26.6485C-2.24759 17.3592 2.37812 6.58859 10.0946 2.15923C16.2677 -1.38418 25.4605 0.694006 29.3212 2.90923C32.3792 4.66399 34.6511 9.18647 35.4647 10.9903C36.1613 9.40085 38.5076 4.49969 41.7216 2.65532Z" fill="#7F7E73"/>
<line x1="23.254" y1="22.2944" x2="49.254" y2="48.2944" stroke="#FEFBE5" stroke-width="2"/>
<line x1="48.336" y1="22.293" x2="22.335" y2="48.294" stroke="#FEFBE5" stroke-width="2"/>
</svg>
