<svg width="72" height="66" viewBox="0 0 72 66" fill="none" xmlns="http://www.w3.org/2000/svg">
<path d="M41.7223 2.65537C45.583 0.440141 54.7757 -1.63709 60.9488 1.90634C68.6652 6.3358 73.291 17.1055 69.9342 26.3946C67.2486 33.8259 59.8817 39.6787 55.6754 41.1075C57.9171 41.8861 60.6565 42.5791 62.4938 45.9366C65.1718 50.8309 64.3615 56.4555 59.5602 61.9073C55.5969 66.4074 49.1687 66.0527 44.9098 65.2706C40.7913 64.5143 35.9922 60.462 35.5377 58.2618V58.297C35.3801 60.4354 30.3932 64.7422 26.1344 65.5245C21.8755 66.3066 15.4462 66.6614 11.483 62.1612C6.68168 56.7094 5.8723 51.0848 8.5504 46.1905C10.3876 42.8331 13.1261 42.1399 15.3678 41.3614C11.1614 39.9326 3.79447 34.0789 1.10899 26.6476C-2.24754 17.3584 2.37895 6.58856 10.0953 2.15927C16.2685 -1.38388 25.4614 0.694055 29.3219 2.90927C32.3797 4.66413 34.6508 9.18652 35.4645 10.9903C36.161 9.4011 38.5081 4.49973 41.7223 2.65537Z" fill="#7F7E73"/>
<line x1="20.0435" y1="26" x2="51.0435" y2="26" stroke="#FEFBE5" stroke-width="2"/>
<line x1="20.0435" y1="35" x2="51.0435" y2="35" stroke="#FEFBE5" stroke-width="2"/>
<line x1="20.0435" y1="44" x2="51.0435" y2="44" stroke="#FEFBE5" stroke-width="2"/>
</svg>
